<?xml version="1.0" encoding="UTF-8"?><svg xmlns="http://www.w3.org/2000/svg" xmlns:xlink="http://www.w3.org/1999/xlink" fill-opacity="1" color-rendering="auto" color-interpolation="auto" text-rendering="auto" stroke="black" stroke-linecap="square" width="1269" stroke-miterlimit="10" shape-rendering="auto" stroke-opacity="1" fill="black" stroke-dasharray="none" font-weight="normal" stroke-width="1" height="638" font-family="'Dialog'" font-style="normal" stroke-linejoin="miter" font-size="12px" stroke-dashoffset="0" image-rendering="auto">
  <!--Generated by ySVG 2.6-->
  <defs id="genericDefs"/>
  <g>
    <defs id="defs1">
      <clipPath clipPathUnits="userSpaceOnUse" id="clipPath1">
        <path d="M0 0 L1269 0 L1269 638 L0 638 L0 0 Z"/>
      </clipPath>
      <clipPath clipPathUnits="userSpaceOnUse" id="clipPath2">
        <path d="M205 219 L1474 219 L1474 857 L205 857 L205 219 Z"/>
      </clipPath>
    </defs>
    <g fill="white" text-rendering="geometricPrecision" shape-rendering="geometricPrecision" transform="matrix(1,0,0,1,-205,-219)" stroke="white">
      <rect x="272.296" y="319" clip-path="url(#clipPath2)" width="57.4043" rx="4" ry="4" height="50" stroke="none"/>
    </g>
    <g text-rendering="geometricPrecision" stroke-miterlimit="1.45" shape-rendering="geometricPrecision" transform="matrix(1,0,0,1,-205,-219)" stroke-linecap="butt">
      <rect x="272.296" y="319" clip-path="url(#clipPath2)" fill="none" width="57.4043" rx="4" ry="4" height="50"/>
      <text x="279.296" xml:space="preserve" y="340.484" clip-path="url(#clipPath2)" font-family="sans-serif" stroke="none">Dataset</text>
      <text x="282.056" xml:space="preserve" y="356.8281" clip-path="url(#clipPath2)" font-family="sans-serif" stroke="none">Choice</text>
    </g>
    <g fill="white" text-rendering="geometricPrecision" shape-rendering="geometricPrecision" transform="matrix(1,0,0,1,-205,-219)" stroke="white">
      <rect x="365.0393" y="319" clip-path="url(#clipPath2)" width="70.1724" rx="4" ry="4" height="50" stroke="none"/>
    </g>
    <g text-rendering="geometricPrecision" stroke-miterlimit="1.45" shape-rendering="geometricPrecision" transform="matrix(1,0,0,1,-205,-219)" stroke-linecap="butt">
      <rect x="365.0393" y="319" clip-path="url(#clipPath2)" fill="none" width="70.1724" rx="4" ry="4" height="50"/>
      <text x="372.0392" xml:space="preserve" y="348.656" clip-path="url(#clipPath2)" font-family="sans-serif" stroke="none">Data View</text>
    </g>
    <g fill="white" text-rendering="geometricPrecision" shape-rendering="geometricPrecision" transform="matrix(1,0,0,1,-205,-219)" stroke="white">
      <rect x="470.5506" y="319" clip-path="url(#clipPath2)" width="86.8165" rx="4" ry="4" height="50" stroke="none"/>
    </g>
    <g text-rendering="geometricPrecision" stroke-miterlimit="1.45" shape-rendering="geometricPrecision" transform="matrix(1,0,0,1,-205,-219)" stroke-linecap="butt">
      <rect x="470.5506" y="319" clip-path="url(#clipPath2)" fill="none" width="86.8165" rx="4" ry="4" height="50"/>
      <text x="477.5506" xml:space="preserve" y="348.656" clip-path="url(#clipPath2)" font-family="sans-serif" stroke="none">Feature View</text>
    </g>
    <g fill="white" text-rendering="geometricPrecision" shape-rendering="geometricPrecision" transform="matrix(1,0,0,1,-205,-219)" stroke="white">
      <rect x="698.2175" y="319" clip-path="url(#clipPath2)" width="94.0286" rx="4" ry="4" height="50" stroke="none"/>
    </g>
    <g text-rendering="geometricPrecision" stroke-miterlimit="1.45" shape-rendering="geometricPrecision" transform="matrix(1,0,0,1,-205,-219)" stroke-linecap="butt">
      <rect x="698.2175" y="319" clip-path="url(#clipPath2)" fill="none" width="94.0286" rx="4" ry="4" height="50"/>
      <text x="705.2175" xml:space="preserve" y="348.656" clip-path="url(#clipPath2)" font-family="sans-serif" stroke="none">Dependencies</text>
    </g>
    <g fill="white" text-rendering="geometricPrecision" shape-rendering="geometricPrecision" transform="matrix(1,0,0,1,-205,-219)" stroke="white">
      <rect x="827.585" y="319" clip-path="url(#clipPath2)" width="68.4924" rx="4" ry="4" height="50" stroke="none"/>
    </g>
    <g text-rendering="geometricPrecision" stroke-miterlimit="1.45" shape-rendering="geometricPrecision" transform="matrix(1,0,0,1,-205,-219)" stroke-linecap="butt">
      <rect x="827.585" y="319" clip-path="url(#clipPath2)" fill="none" width="68.4924" rx="4" ry="4" height="50"/>
      <text x="834.585" xml:space="preserve" y="348.656" clip-path="url(#clipPath2)" font-family="sans-serif" stroke="none">Detection</text>
    </g>
    <g fill="white" text-rendering="geometricPrecision" shape-rendering="geometricPrecision" transform="matrix(1,0,0,1,-205,-219)" stroke="white">
      <rect x="931.4164" y="319" clip-path="url(#clipPath2)" width="71.6244" rx="4" ry="4" height="50" stroke="none"/>
    </g>
    <g text-rendering="geometricPrecision" stroke-miterlimit="1.45" shape-rendering="geometricPrecision" transform="matrix(1,0,0,1,-205,-219)" stroke-linecap="butt">
      <rect x="931.4164" y="319" clip-path="url(#clipPath2)" fill="none" width="71.6244" rx="4" ry="4" height="50"/>
      <text x="953.9505" xml:space="preserve" y="340.484" clip-path="url(#clipPath2)" font-family="sans-serif" stroke="none">Data</text>
      <text x="938.4164" xml:space="preserve" y="356.8281" clip-path="url(#clipPath2)" font-family="sans-serif" stroke="none">Mitigation</text>
    </g>
    <g fill="white" text-rendering="geometricPrecision" shape-rendering="geometricPrecision" transform="matrix(1,0,0,1,-205,-219)" stroke="white">
      <rect x="1038.3797" y="319" clip-path="url(#clipPath2)" width="98.3606" rx="4" ry="4" height="50" stroke="none"/>
    </g>
    <g text-rendering="geometricPrecision" stroke-miterlimit="1.45" stroke-width="2" shape-rendering="geometricPrecision" transform="matrix(1,0,0,1,-205,-219)" stroke-linecap="butt">
      <rect x="1038.3797" y="319" clip-path="url(#clipPath2)" fill="none" width="98.3606" rx="4" ry="4" height="50"/>
      <text x="1045.3798" y="348.656" clip-path="url(#clipPath2)" font-family="sans-serif" stroke="none" stroke-width="1" xml:space="preserve">Pre-processing</text>
    </g>
    <g fill="white" text-rendering="geometricPrecision" shape-rendering="geometricPrecision" transform="matrix(1,0,0,1,-205,-219)" stroke="white">
      <rect x="1038.3797" y="247" clip-path="url(#clipPath2)" width="98.3606" rx="4" ry="4" height="50" stroke="none"/>
    </g>
    <g text-rendering="geometricPrecision" stroke-miterlimit="1.45" stroke-dasharray="6,2" shape-rendering="geometricPrecision" transform="matrix(1,0,0,1,-205,-219)" stroke-linecap="butt">
      <rect x="1038.3797" y="247" clip-path="url(#clipPath2)" fill="none" width="98.3606" rx="4" ry="4" height="50"/>
      <text x="1056.9298" y="268.484" clip-path="url(#clipPath2)" font-family="sans-serif" stroke-dasharray="none" stroke="none" xml:space="preserve">Alternative</text>
      <text x="1045.3798" y="284.8281" clip-path="url(#clipPath2)" font-family="sans-serif" stroke-dasharray="none" stroke="none" xml:space="preserve">Pre-processing</text>
    </g>
    <g fill="white" text-rendering="geometricPrecision" shape-rendering="geometricPrecision" transform="matrix(1,0,0,1,-205,-219)" stroke="white">
      <rect x="1038.3797" y="391" clip-path="url(#clipPath2)" width="98.3606" rx="4" ry="4" height="50" stroke="none"/>
    </g>
    <g text-rendering="geometricPrecision" stroke-miterlimit="1.45" stroke-dasharray="6,2" shape-rendering="geometricPrecision" transform="matrix(1,0,0,1,-205,-219)" stroke-linecap="butt">
      <rect x="1038.3797" y="391" clip-path="url(#clipPath2)" fill="none" width="98.3606" rx="4" ry="4" height="50"/>
      <text x="1071.1379" y="412.484" clip-path="url(#clipPath2)" font-family="sans-serif" stroke-dasharray="none" stroke="none" xml:space="preserve">Other</text>
      <text x="1045.3798" y="428.8281" clip-path="url(#clipPath2)" font-family="sans-serif" stroke-dasharray="none" stroke="none" xml:space="preserve">Pre-processing</text>
    </g>
    <g fill="white" text-rendering="geometricPrecision" shape-rendering="geometricPrecision" transform="matrix(1,0,0,1,-205,-219)" stroke="white">
      <path d="M1172.0793 344 L1181.9154 319 L1260.6039 319 L1270.4399 344 L1260.6039 369 L1181.9154 369 Z" fill-rule="evenodd" clip-path="url(#clipPath2)" stroke="none"/>
    </g>
    <g text-rendering="geometricPrecision" stroke-miterlimit="1.45" shape-rendering="geometricPrecision" transform="matrix(1,0,0,1,-205,-219)" stroke-linecap="butt">
      <path fill="none" d="M1172.0793 344 L1181.9154 319 L1260.6039 319 L1270.4399 344 L1260.6039 369 L1181.9154 369 Z" fill-rule="evenodd" clip-path="url(#clipPath2)"/>
      <text x="1179.0793" xml:space="preserve" y="340.484" clip-path="url(#clipPath2)" font-family="sans-serif" stroke="none">Pre-processing</text>
      <text x="1200.9735" xml:space="preserve" y="356.8281" clip-path="url(#clipPath2)" font-family="sans-serif" stroke="none">Results</text>
    </g>
    <g fill="white" text-rendering="geometricPrecision" shape-rendering="geometricPrecision" transform="matrix(1,0,0,1,-205,-219)" stroke="white">
      <rect x="1305.7789" y="319" clip-path="url(#clipPath2)" width="68.2524" rx="4" ry="4" height="50" stroke="none"/>
    </g>
    <g text-rendering="geometricPrecision" stroke-miterlimit="1.45" shape-rendering="geometricPrecision" transform="matrix(1,0,0,1,-205,-219)" stroke-linecap="butt">
      <rect x="1305.7789" y="319" clip-path="url(#clipPath2)" fill="none" width="68.2524" rx="4" ry="4" height="50"/>
      <text x="1312.7789" xml:space="preserve" y="340.484" clip-path="url(#clipPath2)" font-family="sans-serif" stroke="none">Summary</text>
      <text x="1323.849" xml:space="preserve" y="356.8281" clip-path="url(#clipPath2)" font-family="sans-serif" stroke="none">(pt. 1)</text>
    </g>
    <g fill="white" text-rendering="geometricPrecision" shape-rendering="geometricPrecision" transform="matrix(1,0,0,1,-205,-219)" stroke="white">
      <rect x="1304.0929" y="543" clip-path="url(#clipPath2)" width="71.6244" rx="4" ry="4" height="50" stroke="none"/>
    </g>
    <g text-rendering="geometricPrecision" stroke-miterlimit="1.45" shape-rendering="geometricPrecision" transform="matrix(1,0,0,1,-205,-219)" stroke-linecap="butt">
      <rect x="1304.0929" y="543" clip-path="url(#clipPath2)" fill="none" width="71.6244" rx="4" ry="4" height="50"/>
      <text x="1322.2109" xml:space="preserve" y="564.4839" clip-path="url(#clipPath2)" font-family="sans-serif" stroke="none">Model</text>
      <text x="1311.0929" xml:space="preserve" y="580.8281" clip-path="url(#clipPath2)" font-family="sans-serif" stroke="none">Mitigation</text>
    </g>
    <g fill="white" text-rendering="geometricPrecision" shape-rendering="geometricPrecision" transform="matrix(1,0,0,1,-205,-219)" stroke="white">
      <rect x="1179.5794" y="543" clip-path="url(#clipPath2)" width="90.8605" rx="4" ry="4" height="50" stroke="none"/>
    </g>
    <g text-rendering="geometricPrecision" stroke-miterlimit="1.45" stroke-width="2" shape-rendering="geometricPrecision" transform="matrix(1,0,0,1,-205,-219)" stroke-linecap="butt">
      <rect x="1179.5794" y="543" clip-path="url(#clipPath2)" fill="none" width="90.8605" rx="4" ry="4" height="50"/>
      <text x="1186.5793" y="572.656" clip-path="url(#clipPath2)" font-family="sans-serif" stroke="none" stroke-width="1" xml:space="preserve">In-processing</text>
    </g>
    <g fill="white" text-rendering="geometricPrecision" shape-rendering="geometricPrecision" transform="matrix(1,0,0,1,-205,-219)" stroke="white">
      <rect x="1179.5794" y="610" clip-path="url(#clipPath2)" width="90.8605" rx="4" ry="4" height="50" stroke="none"/>
    </g>
    <g text-rendering="geometricPrecision" stroke-miterlimit="1.45" stroke-dasharray="6,2" shape-rendering="geometricPrecision" transform="matrix(1,0,0,1,-205,-219)" stroke-linecap="butt">
      <rect x="1179.5794" y="610" clip-path="url(#clipPath2)" fill="none" width="90.8605" rx="4" ry="4" height="50"/>
      <text x="1208.5875" y="631.4839" clip-path="url(#clipPath2)" font-family="sans-serif" stroke-dasharray="none" stroke="none" xml:space="preserve">Other</text>
      <text x="1186.5793" y="647.8281" clip-path="url(#clipPath2)" font-family="sans-serif" stroke-dasharray="none" stroke="none" xml:space="preserve">In-processing</text>
    </g>
    <g fill="white" text-rendering="geometricPrecision" shape-rendering="geometricPrecision" transform="matrix(1,0,0,1,-205,-219)" stroke="white">
      <path d="M1055.0659 568 L1064.152 543 L1136.8405 543 L1145.9265 568 L1136.8405 593 L1064.152 593 Z" fill-rule="evenodd" clip-path="url(#clipPath2)" stroke="none"/>
    </g>
    <g text-rendering="geometricPrecision" stroke-miterlimit="1.45" shape-rendering="geometricPrecision" transform="matrix(1,0,0,1,-205,-219)" stroke-linecap="butt">
      <path fill="none" d="M1055.0659 568 L1064.152 543 L1136.8405 543 L1145.9265 568 L1136.8405 593 L1064.152 593 Z" fill-rule="evenodd" clip-path="url(#clipPath2)"/>
      <text x="1062.0659" xml:space="preserve" y="564.4839" clip-path="url(#clipPath2)" font-family="sans-serif" stroke="none">In-processing</text>
      <text x="1080.2101" xml:space="preserve" y="580.8281" clip-path="url(#clipPath2)" font-family="sans-serif" stroke="none">Results</text>
    </g>
    <g fill="white" text-rendering="geometricPrecision" shape-rendering="geometricPrecision" transform="matrix(1,0,0,1,-205,-219)" stroke="white">
      <rect x="933.1024" y="543" clip-path="url(#clipPath2)" width="68.2524" rx="4" ry="4" height="50" stroke="none"/>
    </g>
    <g text-rendering="geometricPrecision" stroke-miterlimit="1.45" shape-rendering="geometricPrecision" transform="matrix(1,0,0,1,-205,-219)" stroke-linecap="butt">
      <rect x="933.1024" y="543" clip-path="url(#clipPath2)" fill="none" width="68.2524" rx="4" ry="4" height="50"/>
      <text x="940.1024" xml:space="preserve" y="564.4839" clip-path="url(#clipPath2)" font-family="sans-serif" stroke="none">Summary</text>
      <text x="951.1725" xml:space="preserve" y="580.8281" clip-path="url(#clipPath2)" font-family="sans-serif" stroke="none">(pt. 2)</text>
    </g>
    <g fill="white" text-rendering="geometricPrecision" shape-rendering="geometricPrecision" transform="matrix(1,0,0,1,-205,-219)" stroke="white">
      <rect x="824.453" y="543" clip-path="url(#clipPath2)" width="71.6244" rx="4" ry="4" height="50" stroke="none"/>
    </g>
    <g text-rendering="geometricPrecision" stroke-miterlimit="1.45" shape-rendering="geometricPrecision" transform="matrix(1,0,0,1,-205,-219)" stroke-linecap="butt">
      <rect x="824.453" y="543" clip-path="url(#clipPath2)" fill="none" width="71.6244" rx="4" ry="4" height="50"/>
      <text x="834.201" xml:space="preserve" y="564.4839" clip-path="url(#clipPath2)" font-family="sans-serif" stroke="none">Outcome</text>
      <text x="831.453" xml:space="preserve" y="580.8281" clip-path="url(#clipPath2)" font-family="sans-serif" stroke="none">Mitigation</text>
    </g>
    <g fill="white" text-rendering="geometricPrecision" shape-rendering="geometricPrecision" transform="matrix(1,0,0,1,-205,-219)" stroke="white">
      <rect x="1179.5794" y="476" clip-path="url(#clipPath2)" width="90.8605" rx="4" ry="4" height="50" stroke="none"/>
    </g>
    <g text-rendering="geometricPrecision" stroke-miterlimit="1.45" stroke-dasharray="6,2" shape-rendering="geometricPrecision" transform="matrix(1,0,0,1,-205,-219)" stroke-linecap="butt">
      <rect x="1179.5794" y="476" clip-path="url(#clipPath2)" fill="none" width="90.8605" rx="4" ry="4" height="50"/>
      <text x="1194.3794" y="497.484" clip-path="url(#clipPath2)" font-family="sans-serif" stroke-dasharray="none" stroke="none" xml:space="preserve">Alternative</text>
      <text x="1186.5793" y="513.8281" clip-path="url(#clipPath2)" font-family="sans-serif" stroke-dasharray="none" stroke="none" xml:space="preserve">In-processing</text>
      <text x="214.2459" y="294.656" clip-path="url(#clipPath2)" font-family="sans-serif" stroke-dasharray="none" stroke="none" xml:space="preserve">start</text>
    </g>
    <g fill="white" text-rendering="geometricPrecision" shape-rendering="geometricPrecision" transform="matrix(1,0,0,1,-205,-219)" stroke="white">
      <rect x="939.7984" y="745" clip-path="url(#clipPath2)" width="58.2323" rx="4" ry="4" height="50" stroke="none"/>
    </g>
    <g text-rendering="geometricPrecision" stroke-miterlimit="1.45" shape-rendering="geometricPrecision" transform="matrix(1,0,0,1,-205,-219)" stroke-linecap="butt">
      <rect x="939.7984" y="745" clip-path="url(#clipPath2)" fill="none" width="58.2323" rx="4" ry="4" height="50"/>
      <text x="946.7984" xml:space="preserve" y="766.4839" clip-path="url(#clipPath2)" font-family="sans-serif" stroke="none">Test-set</text>
      <text x="949.9724" xml:space="preserve" y="782.8281" clip-path="url(#clipPath2)" font-family="sans-serif" stroke="none">Choice</text>
    </g>
    <g fill="white" text-rendering="geometricPrecision" shape-rendering="geometricPrecision" transform="matrix(1,0,0,1,-205,-219)" stroke="white">
      <rect x="1043.7438" y="745" clip-path="url(#clipPath2)" width="80.8765" rx="4" ry="4" height="50" stroke="none"/>
    </g>
    <g text-rendering="geometricPrecision" stroke-miterlimit="1.45" shape-rendering="geometricPrecision" transform="matrix(1,0,0,1,-205,-219)" stroke-linecap="butt">
      <rect x="1043.7438" y="745" clip-path="url(#clipPath2)" fill="none" width="80.8765" rx="4" ry="4" height="50"/>
      <text x="1050.7438" xml:space="preserve" y="774.656" clip-path="url(#clipPath2)" font-family="sans-serif" stroke="none">Polarization</text>
    </g>
    <g fill="white" text-rendering="geometricPrecision" shape-rendering="geometricPrecision" transform="matrix(1,0,0,1,-205,-219)" stroke="white">
      <path d="M1179.5793 770 L1187.667 745 L1252.3683 745 L1260.4559 770 L1252.3683 795 L1187.667 795 Z" fill-rule="evenodd" clip-path="url(#clipPath2)" stroke="none"/>
    </g>
    <g text-rendering="geometricPrecision" stroke-miterlimit="1.45" shape-rendering="geometricPrecision" transform="matrix(1,0,0,1,-205,-219)" stroke-linecap="butt">
      <path fill="none" d="M1179.5793 770 L1187.667 745 L1252.3683 745 L1260.4559 770 L1252.3683 795 L1187.667 795 Z" fill-rule="evenodd" clip-path="url(#clipPath2)"/>
      <text x="1186.5793" xml:space="preserve" y="766.4839" clip-path="url(#clipPath2)" font-family="sans-serif" stroke="none">Polarization</text>
      <text x="1199.7314" xml:space="preserve" y="782.8281" clip-path="url(#clipPath2)" font-family="sans-serif" stroke="none">Results</text>
    </g>
    <g fill="white" text-rendering="geometricPrecision" shape-rendering="geometricPrecision" transform="matrix(1,0,0,1,-205,-219)" stroke="white">
      <rect x="1321.727" y="745" clip-path="url(#clipPath2)" width="68.2524" rx="4" ry="4" height="50" stroke="none"/>
    </g>
    <g text-rendering="geometricPrecision" stroke-miterlimit="1.45" shape-rendering="geometricPrecision" transform="matrix(1,0,0,1,-205,-219)" stroke-linecap="butt">
      <rect x="1321.727" y="745" clip-path="url(#clipPath2)" fill="none" width="68.2524" rx="4" ry="4" height="50"/>
      <text x="1328.7271" xml:space="preserve" y="766.4839" clip-path="url(#clipPath2)" font-family="sans-serif" stroke="none">Summary</text>
      <text x="1339.7971" xml:space="preserve" y="782.8281" clip-path="url(#clipPath2)" font-family="sans-serif" stroke="none">(pt. 3)</text>
    </g>
    <g fill="white" text-rendering="geometricPrecision" shape-rendering="geometricPrecision" transform="matrix(1,0,0,1,-205,-219)" stroke="white">
      <rect x="688.2694" y="543" clip-path="url(#clipPath2)" width="103.9767" rx="4" ry="4" height="50" stroke="none"/>
    </g>
    <g text-rendering="geometricPrecision" stroke-miterlimit="1.45" stroke-width="2" shape-rendering="geometricPrecision" transform="matrix(1,0,0,1,-205,-219)" stroke-linecap="butt">
      <rect x="688.2694" y="543" clip-path="url(#clipPath2)" fill="none" width="103.9767" rx="4" ry="4" height="50"/>
      <text x="695.2693" y="572.656" clip-path="url(#clipPath2)" font-family="sans-serif" stroke="none" stroke-width="1" xml:space="preserve">Post-processing</text>
    </g>
    <g fill="white" text-rendering="geometricPrecision" shape-rendering="geometricPrecision" transform="matrix(1,0,0,1,-205,-219)" stroke="white">
      <rect x="688.2694" y="476" clip-path="url(#clipPath2)" width="103.9767" rx="4" ry="4" height="50" stroke="none"/>
    </g>
    <g text-rendering="geometricPrecision" stroke-miterlimit="1.45" stroke-dasharray="6,2" shape-rendering="geometricPrecision" transform="matrix(1,0,0,1,-205,-219)" stroke-linecap="butt">
      <rect x="688.2694" y="476" clip-path="url(#clipPath2)" fill="none" width="103.9767" rx="4" ry="4" height="50"/>
      <text x="709.6275" y="497.484" clip-path="url(#clipPath2)" font-family="sans-serif" stroke-dasharray="none" stroke="none" xml:space="preserve">Alternative</text>
      <text x="695.2693" y="513.8281" clip-path="url(#clipPath2)" font-family="sans-serif" stroke-dasharray="none" stroke="none" xml:space="preserve">Post-processing</text>
    </g>
    <g fill="white" text-rendering="geometricPrecision" shape-rendering="geometricPrecision" transform="matrix(1,0,0,1,-205,-219)" stroke="white">
      <rect x="688.2694" y="610" clip-path="url(#clipPath2)" width="103.9767" rx="4" ry="4" height="50" stroke="none"/>
    </g>
    <g text-rendering="geometricPrecision" stroke-miterlimit="1.45" stroke-dasharray="6,2" shape-rendering="geometricPrecision" transform="matrix(1,0,0,1,-205,-219)" stroke-linecap="butt">
      <rect x="688.2694" y="610" clip-path="url(#clipPath2)" fill="none" width="103.9767" rx="4" ry="4" height="50"/>
      <text x="723.8356" y="631.4839" clip-path="url(#clipPath2)" font-family="sans-serif" stroke-dasharray="none" stroke="none" xml:space="preserve">Other</text>
      <text x="695.2693" y="647.8281" clip-path="url(#clipPath2)" font-family="sans-serif" stroke-dasharray="none" stroke="none" xml:space="preserve">Post-processing</text>
    </g>
    <g fill="white" text-rendering="geometricPrecision" shape-rendering="geometricPrecision" transform="matrix(1,0,0,1,-205,-219)" stroke="white">
      <path d="M552.0858 568 L562.4834 543 L645.6647 543 L656.0624 568 L645.6647 593 L562.4834 593 Z" fill-rule="evenodd" clip-path="url(#clipPath2)" stroke="none"/>
    </g>
    <g text-rendering="geometricPrecision" stroke-miterlimit="1.45" shape-rendering="geometricPrecision" transform="matrix(1,0,0,1,-205,-219)" stroke-linecap="butt">
      <path fill="none" d="M552.0858 568 L562.4834 543 L645.6647 543 L656.0624 568 L645.6647 593 L562.4834 593 Z" fill-rule="evenodd" clip-path="url(#clipPath2)"/>
      <text x="559.0858" xml:space="preserve" y="564.4839" clip-path="url(#clipPath2)" font-family="sans-serif" stroke="none">Post-processing</text>
      <text x="583.788" xml:space="preserve" y="580.8281" clip-path="url(#clipPath2)" font-family="sans-serif" stroke="none">Results</text>
    </g>
    <g fill="white" text-rendering="geometricPrecision" shape-rendering="geometricPrecision" transform="matrix(1,0,0,1,-205,-219)" stroke="white">
      <rect x="453.8334" y="543" clip-path="url(#clipPath2)" width="68.2524" rx="4" ry="4" height="50" stroke="none"/>
    </g>
    <g text-rendering="geometricPrecision" stroke-miterlimit="1.45" shape-rendering="geometricPrecision" transform="matrix(1,0,0,1,-205,-219)" stroke-linecap="butt">
      <rect x="453.8334" y="543" clip-path="url(#clipPath2)" fill="none" width="68.2524" rx="4" ry="4" height="50"/>
      <text x="460.8334" xml:space="preserve" y="564.4839" clip-path="url(#clipPath2)" font-family="sans-serif" stroke="none">Summary</text>
      <text x="471.9035" xml:space="preserve" y="580.8281" clip-path="url(#clipPath2)" font-family="sans-serif" stroke="none">(pt. 4)</text>
      <text x="370.7825" xml:space="preserve" y="572.656" clip-path="url(#clipPath2)" font-family="sans-serif" stroke="none">end</text>
      <text x="1423.5651" xml:space="preserve" y="348.656" clip-path="url(#clipPath2)" font-family="sans-serif" stroke="none">end</text>
      <text x="1442.7302" xml:space="preserve" y="774.656" clip-path="url(#clipPath2)" font-family="sans-serif" stroke="none">end</text>
    </g>
    <g fill="white" text-rendering="geometricPrecision" shape-rendering="geometricPrecision" transform="matrix(1,0,0,1,-205,-219)" stroke="white">
      <path d="M588.4341 344 L596.3057 319 L659.2789 319 L667.1505 344 L659.2789 369 L596.3057 369 Z" fill-rule="evenodd" clip-path="url(#clipPath2)" stroke="none"/>
    </g>
    <g text-rendering="geometricPrecision" stroke-miterlimit="1.45" shape-rendering="geometricPrecision" transform="matrix(1,0,0,1,-205,-219)" stroke-linecap="butt">
      <path fill="none" d="M588.4341 344 L596.3057 319 L659.2789 319 L667.1505 344 L659.2789 369 L596.3057 369 Z" fill-rule="evenodd" clip-path="url(#clipPath2)"/>
      <text x="595.4341" xml:space="preserve" y="340.484" clip-path="url(#clipPath2)" font-family="sans-serif" stroke="none">Preliminary</text>
      <text x="604.9802" xml:space="preserve" y="356.8281" clip-path="url(#clipPath2)" font-family="sans-serif" stroke="none">Analysis</text>
      <path fill="none" d="M329.7005 344 L357.0161 344" clip-path="url(#clipPath2)"/>
      <path d="M365.0161 344 L353.0161 339 L356.0161 344 L353.0161 349 Z" clip-path="url(#clipPath2)" stroke="none"/>
      <path fill="none" d="M435.226 344 L462.5558 344" clip-path="url(#clipPath2)"/>
      <path d="M470.5558 344 L458.5558 339 L461.5558 344 L458.5558 349 Z" clip-path="url(#clipPath2)" stroke="none"/>
      <path fill="none" d="M792.2302 344 L819.6085 344" clip-path="url(#clipPath2)"/>
      <path d="M827.6085 344 L815.6085 339 L818.6085 344 L815.6085 349 Z" clip-path="url(#clipPath2)" stroke="none"/>
      <path fill="none" d="M896.0802 344 L923.4112 344" clip-path="url(#clipPath2)"/>
      <path d="M931.4112 344 L919.4112 339 L922.4112 344 L919.4112 349 Z" clip-path="url(#clipPath2)" stroke="none"/>
      <path fill="none" d="M1003.0401 344 L1030.4081 344" clip-path="url(#clipPath2)"/>
      <path d="M1038.4081 344 L1026.4081 339 L1029.4081 344 L1026.4081 349 Z" clip-path="url(#clipPath2)" stroke="none"/>
      <path fill="none" stroke-dasharray="6,2" d="M1003.0401 322.5723 L1038.889 301.1221" clip-path="url(#clipPath2)"/>
      <path stroke-dasharray="6,2" d="M1045.754 297.0145 L1032.8894 298.8853 L1038.031 301.6356 L1038.0238 307.4665 Z" clip-path="url(#clipPath2)" stroke="none"/>
      <path fill="none" stroke-dasharray="6,2" d="M1003.0401 365.4277 L1038.889 386.8779" clip-path="url(#clipPath2)"/>
      <path stroke-dasharray="6,2" d="M1045.754 390.9855 L1038.0238 380.5335 L1038.031 386.3644 L1032.8894 389.1147 Z" clip-path="url(#clipPath2)" stroke="none"/>
      <path fill="none" d="M1136.7507 344 L1164.1141 344" clip-path="url(#clipPath2)"/>
      <path d="M1172.1141 344 L1160.1141 339 L1163.1141 344 L1160.1141 349 Z" clip-path="url(#clipPath2)" stroke="none"/>
      <path fill="none" stroke-dasharray="6,2" d="M1133.7478 391.127 L1173.6649 369.6308" clip-path="url(#clipPath2)"/>
      <path stroke-dasharray="6,2" d="M1180.7085 365.8376 L1167.7725 367.1251 L1172.7844 370.1049 L1172.5138 375.9296 Z" clip-path="url(#clipPath2)" stroke="none"/>
      <path fill="none" stroke-dasharray="6,2" d="M1133.7478 296.873 L1173.6649 318.3692" clip-path="url(#clipPath2)"/>
      <path stroke-dasharray="6,2" d="M1180.7085 322.1624 L1172.5138 312.0704 L1172.7844 317.8951 L1167.7725 320.8749 Z" clip-path="url(#clipPath2)" stroke="none"/>
      <path fill="none" d="M1270.4153 344 L1297.8048 344" clip-path="url(#clipPath2)"/>
      <path d="M1305.8048 344 L1293.8048 339 L1296.8048 344 L1293.8048 349 Z" clip-path="url(#clipPath2)" stroke="none"/>
      <path fill="none" d="M1338.4568 319.0198 L1338.4568 221 L967.2286 221 L967.2286 310.9856" clip-path="url(#clipPath2)"/>
      <path d="M967.2286 318.9856 L972.2286 306.9856 L967.2286 309.9856 L962.2286 306.9856 Z" clip-path="url(#clipPath2)" stroke="none"/>
      <path fill="none" d="M1339.9052 369.0195 L1339.9052 534.9817" clip-path="url(#clipPath2)"/>
      <path d="M1339.9052 542.9817 L1344.9052 530.9817 L1339.9052 533.9817 L1334.9052 530.9817 Z" clip-path="url(#clipPath2)" stroke="none"/>
      <path fill="none" d="M1304.0845 568 L1278.4545 568" clip-path="url(#clipPath2)"/>
      <path d="M1270.4545 568 L1282.4545 573 L1279.4545 568 L1282.4545 563 Z" clip-path="url(#clipPath2)" stroke="none"/>
      <path fill="none" stroke-dasharray="6,2" d="M1304.0845 588.8884 L1274.5081 606.1356" clip-path="url(#clipPath2)"/>
      <path stroke-dasharray="6,2" d="M1267.5972 610.1655 L1280.4822 608.4399 L1275.3718 605.6318 L1275.4447 599.8013 Z" clip-path="url(#clipPath2)" stroke="none"/>
      <path fill="none" d="M1179.5635 568 L1153.9366 568" clip-path="url(#clipPath2)"/>
      <path d="M1145.9366 568 L1157.9366 573 L1154.9366 568 L1157.9366 563 Z" clip-path="url(#clipPath2)" stroke="none"/>
      <path fill="none" stroke-dasharray="6,2" d="M1180.7186 611.1672 L1145.5762 592.2573" clip-path="url(#clipPath2)"/>
      <path stroke-dasharray="6,2" d="M1138.5314 588.4665 L1146.7294 598.5557 L1146.4568 592.7311 L1151.4679 589.7496 Z" clip-path="url(#clipPath2)" stroke="none"/>
      <path fill="none" d="M1055.0433 568 L1009.3168 568" clip-path="url(#clipPath2)"/>
      <path d="M1001.3168 568 L1013.3168 573 L1010.3168 568 L1013.3168 563 Z" clip-path="url(#clipPath2)" stroke="none"/>
      <path fill="none" d="M967.2286 542.9805 L967.2286 377.0183" clip-path="url(#clipPath2)"/>
      <path d="M967.2286 369.0183 L962.2286 381.0183 L967.2286 378.0183 L972.2286 381.0183 Z" clip-path="url(#clipPath2)" stroke="none"/>
      <path fill="none" d="M970.1339 592.9939 L980.8286 685 L1339.9052 685 L1339.9052 600.9939" clip-path="url(#clipPath2)"/>
      <path d="M1339.9052 592.9939 L1334.9052 604.9939 L1339.9052 601.9939 L1344.9052 604.9939 Z" clip-path="url(#clipPath2)" stroke="none"/>
      <path fill="none" d="M933.0974 568 L904.0767 568" clip-path="url(#clipPath2)"/>
      <path d="M896.0767 568 L908.0767 573 L905.0767 568 L908.0767 563 Z" clip-path="url(#clipPath2)" stroke="none"/>
      <path fill="none" stroke-dasharray="6,2" d="M1304.0845 547.1116 L1274.5081 529.8644" clip-path="url(#clipPath2)"/>
      <path stroke-dasharray="6,2" d="M1267.5972 525.8345 L1275.4447 536.1987 L1275.3718 530.3682 L1280.4822 527.5601 Z" clip-path="url(#clipPath2)" stroke="none"/>
      <path fill="none" stroke-dasharray="6,2" d="M1180.7186 524.8328 L1145.5762 543.7427" clip-path="url(#clipPath2)"/>
      <path stroke-dasharray="6,2" d="M1138.5314 547.5335 L1151.4679 546.2504 L1146.4568 543.2689 L1146.7294 537.4443 Z" clip-path="url(#clipPath2)" stroke="none"/>
      <path fill="none" d="M241.6207 300.4954 L265.8709 318.263" clip-path="url(#clipPath2)"/>
      <path d="M272.3242 322.9912 L265.5994 311.8657 L265.0642 317.672 L259.6892 319.9322 Z" clip-path="url(#clipPath2)" stroke="none"/>
      <path fill="none" d="M967.4373 593.0034 L968.639 736.9805" clip-path="url(#clipPath2)"/>
      <path d="M968.7057 744.9802 L973.6054 732.9388 L968.6306 735.9805 L963.6058 733.0223 Z" clip-path="url(#clipPath2)" stroke="none"/>
      <path fill="none" d="M981.8743 744.9827 L1079.2886 599.6416" clip-path="url(#clipPath2)"/>
      <path d="M1083.7426 592.9962 L1072.9081 600.1805 L1078.7318 600.4723 L1081.215 605.748 Z" clip-path="url(#clipPath2)" stroke="none"/>
      <path fill="none" d="M998.041 770 L1035.7614 770" clip-path="url(#clipPath2)"/>
      <path d="M1043.7614 770 L1031.7614 765 L1034.7614 770 L1031.7614 775 Z" clip-path="url(#clipPath2)" stroke="none"/>
      <path fill="none" d="M1124.6078 770 L1171.5337 770" clip-path="url(#clipPath2)"/>
      <path d="M1179.5337 770 L1167.5337 765 L1170.5337 770 L1167.5337 775 Z" clip-path="url(#clipPath2)" stroke="none"/>
      <path fill="none" d="M1260.4434 770 L1313.7051 770" clip-path="url(#clipPath2)"/>
      <path d="M1321.7051 770 L1309.7051 765 L1312.7051 770 L1309.7051 775 Z" clip-path="url(#clipPath2)" stroke="none"/>
      <path fill="none" d="M998.0459 749.9458 L1056.5869 709.6458 L1355.8533 709.6458 L1355.8533 736.9801" clip-path="url(#clipPath2)"/>
      <path d="M1355.8533 744.9801 L1360.8533 732.9801 L1355.8533 735.9801 L1350.8533 732.9801 Z" clip-path="url(#clipPath2)" stroke="none"/>
      <path fill="none" d="M1355.8533 794.9756 L1355.8533 836 L868.5869 836 L868.5869 600.9788" clip-path="url(#clipPath2)"/>
      <path d="M868.5869 592.9788 L863.5869 604.9788 L868.5869 601.9788 L873.5869 604.9788 Z" clip-path="url(#clipPath2)" stroke="none"/>
      <path fill="none" d="M1372.1519 745.015 L1418.1869 674.4458 L1418.1869 456 L991.2286 456 L972.2077 376.7827" clip-path="url(#clipPath2)"/>
      <path d="M970.3399 369.0038 L968.2798 381.8395 L972.4412 377.755 L978.0034 379.5047 Z" clip-path="url(#clipPath2)" stroke="none"/>
      <path fill="none" d="M824.4329 568 L800.2507 568" clip-path="url(#clipPath2)"/>
      <path d="M792.2507 568 L804.2507 573 L801.2507 568 L804.2507 563 Z" clip-path="url(#clipPath2)" stroke="none"/>
      <path fill="none" d="M824.4329 547.9949 L792.002 529.8887" clip-path="url(#clipPath2)"/>
      <path d="M785.0168 525.989 L793.0571 536.2043 L792.8751 530.3762 L797.9319 527.4729 Z" clip-path="url(#clipPath2)" stroke="none"/>
      <path fill="none" d="M824.4329 588.0051 L792.002 606.1113" clip-path="url(#clipPath2)"/>
      <path d="M785.0168 610.011 L797.9319 608.5271 L792.8751 605.6238 L793.0571 599.7957 Z" clip-path="url(#clipPath2)" stroke="none"/>
      <path fill="none" d="M688.2911 568 L664.093 568" clip-path="url(#clipPath2)"/>
      <path d="M656.093 568 L668.093 573 L665.093 568 L668.093 563 Z" clip-path="url(#clipPath2)" stroke="none"/>
      <path fill="none" stroke-dasharray="6,2" d="M690.419 610.4802 L654.3827 592.751" clip-path="url(#clipPath2)"/>
      <path stroke-dasharray="6,2" d="M647.2044 589.2194 L655.7646 599.0032 L655.28 593.1924 L660.1791 590.0303 Z" clip-path="url(#clipPath2)" stroke="none"/>
      <path fill="none" stroke-dasharray="6,2" d="M690.419 525.5198 L654.3827 543.249" clip-path="url(#clipPath2)"/>
      <path stroke-dasharray="6,2" d="M647.2044 546.7806 L660.1791 545.9697 L655.28 542.8076 L655.7646 536.9968 Z" clip-path="url(#clipPath2)" stroke="none"/>
      <path fill="none" d="M552.1117 568 L530.0717 568" clip-path="url(#clipPath2)"/>
      <path d="M522.0717 568 L534.0717 573 L531.0717 568 L534.0717 563 Z" clip-path="url(#clipPath2)" stroke="none"/>
      <path fill="none" d="M491.7057 542.9948 L503.9596 461.2 L861.8312 461.2 L860.7491 534.9957" clip-path="url(#clipPath2)"/>
      <path d="M860.6318 542.9948 L865.8073 531.0694 L860.7638 533.9958 L855.8083 530.9228 Z" clip-path="url(#clipPath2)" stroke="none"/>
      <path fill="none" d="M491.3264 593.0034 L501.5596 669 L606.1869 669 L1323.9052 669 L1335.254 600.9068" clip-path="url(#clipPath2)"/>
      <path d="M1336.5692 593.0156 L1329.6644 604.0304 L1335.0896 601.8932 L1339.5284 605.6743 Z" clip-path="url(#clipPath2)" stroke="none"/>
      <path fill="none" d="M487.9596 592.9729 L487.9596 625.7904 L487.9596 685.9504 L943.2286 685.9504 L958.9384 737.356" clip-path="url(#clipPath2)"/>
      <path d="M961.2765 745.0067 L962.5511 732.0693 L958.6462 736.3997 L952.9877 734.9919 Z" clip-path="url(#clipPath2)" stroke="none"/>
      <path fill="none" d="M487.9596 543.0294 L487.9596 495.8704 L487.9596 446 L938.4286 446 L964.4124 376.5162" clip-path="url(#clipPath2)"/>
      <path d="M967.2145 369.023 L958.3281 378.5115 L964.0621 377.4529 L967.6946 382.0141 Z" clip-path="url(#clipPath2)" stroke="none"/>
      <path fill="none" d="M453.854 568 L407.3467 568" clip-path="url(#clipPath2)"/>
      <path d="M399.3467 568 L411.3467 573 L408.3467 568 L411.3467 563 Z" clip-path="url(#clipPath2)" stroke="none"/>
      <path fill="none" d="M1374.0758 344 L1408.5651 344" clip-path="url(#clipPath2)"/>
      <path d="M1416.5651 344 L1404.5651 339 L1407.5651 344 L1404.5651 349 Z" clip-path="url(#clipPath2)" stroke="none"/>
      <path fill="none" d="M1389.948 770 L1427.7302 770" clip-path="url(#clipPath2)"/>
      <path d="M1435.7302 770 L1423.7302 765 L1426.7302 770 L1423.7302 775 Z" clip-path="url(#clipPath2)" stroke="none"/>
      <path fill="none" d="M557.3412 344 L580.4044 344" clip-path="url(#clipPath2)"/>
      <path d="M588.4044 344 L576.4044 339 L579.4044 344 L576.4044 349 Z" clip-path="url(#clipPath2)" stroke="none"/>
      <path fill="none" d="M667.1586 344 L690.2278 344" clip-path="url(#clipPath2)"/>
      <path d="M698.2278 344 L686.2278 339 L689.2278 344 L686.2278 349 Z" clip-path="url(#clipPath2)" stroke="none"/>
    </g>
    <g fill="rgb(245,245,245)" text-rendering="geometricPrecision" shape-rendering="geometricPrecision" transform="matrix(1,0,0,1,-205,-219)" stroke="rgb(245,245,245)">
      <rect x="239.7568" y="685.8649" clip-path="url(#clipPath2)" width="200.5308" rx="4" ry="4" height="168.2701" stroke="none"/>
      <rect x="239.7568" y="685.8649" clip-path="url(#clipPath2)" fill="rgb(235,235,235)" width="200.5308" height="24.4301" stroke="none"/>
    </g>
    <g font-size="15px" stroke-linecap="butt" transform="matrix(1,0,0,1,-205,-219)" text-rendering="geometricPrecision" font-family="sans-serif" shape-rendering="geometricPrecision" stroke-miterlimit="1.45">
      <text x="385.7872" xml:space="preserve" y="703.9" clip-path="url(#clipPath2)" stroke="none">Legend</text>
      <rect x="239.7568" y="685.8649" clip-path="url(#clipPath2)" fill="none" width="200.5308" stroke-dasharray="6,2" rx="4" ry="4" height="168.2701"/>
    </g>
    <g fill="white" text-rendering="geometricPrecision" shape-rendering="geometricPrecision" transform="matrix(1,0,0,1,-205,-219)" stroke="white">
      <rect x="254.7568" y="725.2951" clip-path="url(#clipPath2)" width="40.4962" rx="4" ry="4" height="50" stroke="none"/>
    </g>
    <g text-rendering="geometricPrecision" stroke-miterlimit="1.45" shape-rendering="geometricPrecision" transform="matrix(1,0,0,1,-205,-219)" stroke-linecap="butt">
      <rect x="254.7568" y="725.2951" clip-path="url(#clipPath2)" fill="none" width="40.4962" rx="4" ry="4" height="50"/>
      <text x="261.7568" xml:space="preserve" y="754.9511" clip-path="url(#clipPath2)" font-family="sans-serif" stroke="none">View</text>
    </g>
    <g fill="white" text-rendering="geometricPrecision" shape-rendering="geometricPrecision" transform="matrix(1,0,0,1,-205,-219)" stroke="white">
      <path d="M374.9633 750.295 L379.9958 725.295 L420.2552 725.295 L425.2876 750.295 L420.2552 775.295 L379.9958 775.295 Z" fill-rule="evenodd" clip-path="url(#clipPath2)" stroke="none"/>
    </g>
    <g text-rendering="geometricPrecision" stroke-miterlimit="1.45" shape-rendering="geometricPrecision" transform="matrix(1,0,0,1,-205,-219)" stroke-linecap="butt">
      <path fill="none" d="M374.9633 750.295 L379.9958 725.295 L420.2552 725.295 L425.2876 750.295 L420.2552 775.295 L379.9958 775.295 Z" fill-rule="evenodd" clip-path="url(#clipPath2)"/>
      <text x="381.9633" xml:space="preserve" y="754.9511" clip-path="url(#clipPath2)" font-family="sans-serif" stroke="none">Dialog</text>
    </g>
    <g fill="white" text-rendering="geometricPrecision" shape-rendering="geometricPrecision" transform="matrix(1,0,0,1,-205,-219)" stroke="white">
      <rect x="254.7568" y="789.1351" clip-path="url(#clipPath2)" width="66.9684" rx="4" ry="4" height="50" stroke="none"/>
    </g>
    <g text-rendering="geometricPrecision" stroke-miterlimit="1.45" stroke-width="2" shape-rendering="geometricPrecision" transform="matrix(1,0,0,1,-205,-219)" stroke-linecap="butt">
      <rect x="254.7568" y="789.1351" clip-path="url(#clipPath2)" fill="none" width="66.9684" rx="4" ry="4" height="50"/>
      <text x="261.7568" y="818.7911" clip-path="url(#clipPath2)" font-family="sans-serif" stroke="none" stroke-width="1" xml:space="preserve">Template</text>
    </g>
    <g fill="white" text-rendering="geometricPrecision" shape-rendering="geometricPrecision" transform="matrix(1,0,0,1,-205,-219)" stroke="white">
      <rect x="358.3192" y="789.1351" clip-path="url(#clipPath2)" width="66.9684" rx="4" ry="4" height="50" stroke="none"/>
    </g>
    <g text-rendering="geometricPrecision" stroke-miterlimit="1.45" stroke-dasharray="6,2" shape-rendering="geometricPrecision" transform="matrix(1,0,0,1,-205,-219)" stroke-linecap="butt">
      <rect x="358.3192" y="789.1351" clip-path="url(#clipPath2)" fill="none" width="66.9684" rx="4" ry="4" height="50"/>
      <text x="365.3192" y="810.619" clip-path="url(#clipPath2)" font-family="sans-serif" stroke-dasharray="none" stroke="none" xml:space="preserve">Template</text>
      <text x="367.6832" y="826.9631" clip-path="url(#clipPath2)" font-family="sans-serif" stroke-dasharray="none" stroke="none" xml:space="preserve">Instance</text>
      <path fill="none" stroke-dasharray="none" d="M295.2576 750.295 L366.9582 750.295" clip-path="url(#clipPath2)"/>
      <path stroke-dasharray="none" d="M374.9582 750.295 L362.9582 745.295 L365.9582 750.295 L362.9582 755.295 Z" clip-path="url(#clipPath2)" stroke="none"/>
      <text x="323.0721" y="746.7791" clip-path="url(#clipPath2)" font-family="sans-serif" stroke-dasharray="none" stroke="none" xml:space="preserve">may</text>
      <text x="317.972" y="763.1232" clip-path="url(#clipPath2)" font-family="sans-serif" stroke-dasharray="none" stroke="none" xml:space="preserve">follow</text>
    </g>
  </g>
</svg>
