<?xml version="1.0" encoding="UTF-8"?><svg xmlns="http://www.w3.org/2000/svg" xmlns:xlink="http://www.w3.org/1999/xlink" fill-opacity="1" color-rendering="auto" color-interpolation="auto" text-rendering="auto" stroke="black" stroke-linecap="square" width="1269" stroke-miterlimit="10" shape-rendering="auto" stroke-opacity="1" fill="black" stroke-dasharray="none" font-weight="normal" stroke-width="1" height="619" font-family="'Dialog'" font-style="normal" stroke-linejoin="miter" font-size="12px" stroke-dashoffset="0" image-rendering="auto">
  <!--Generated by ySVG 2.6-->
  <defs id="genericDefs"/>
  <g>
    <defs id="defs1">
      <clipPath clipPathUnits="userSpaceOnUse" id="clipPath1">
        <path d="M0 0 L1269 0 L1269 619 L0 619 L0 0 Z"/>
      </clipPath>
      <clipPath clipPathUnits="userSpaceOnUse" id="clipPath2">
        <path d="M230 270 L1499 270 L1499 889 L230 889 L230 270 Z"/>
      </clipPath>
    </defs>
    <g fill="white" text-rendering="geometricPrecision" shape-rendering="geometricPrecision" transform="matrix(1,0,0,1,-230,-270)" stroke="white">
      <rect x="297.5419" y="370" clip-path="url(#clipPath2)" width="57.4043" rx="4" ry="4" height="50" stroke="none"/>
    </g>
    <g text-rendering="geometricPrecision" stroke-miterlimit="1.45" shape-rendering="geometricPrecision" transform="matrix(1,0,0,1,-230,-270)" stroke-linecap="butt">
      <rect x="297.5419" y="370" clip-path="url(#clipPath2)" fill="none" width="57.4043" rx="4" ry="4" height="50"/>
      <text x="304.5419" xml:space="preserve" y="391.484" clip-path="url(#clipPath2)" font-family="sans-serif" stroke="none">Dataset</text>
      <text x="307.3019" xml:space="preserve" y="407.8281" clip-path="url(#clipPath2)" font-family="sans-serif" stroke="none">Choice</text>
    </g>
    <g fill="white" text-rendering="geometricPrecision" shape-rendering="geometricPrecision" transform="matrix(1,0,0,1,-230,-270)" stroke="white">
      <rect x="390.2852" y="370" clip-path="url(#clipPath2)" width="70.1724" rx="4" ry="4" height="50" stroke="none"/>
    </g>
    <g text-rendering="geometricPrecision" stroke-miterlimit="1.45" shape-rendering="geometricPrecision" transform="matrix(1,0,0,1,-230,-270)" stroke-linecap="butt">
      <rect x="390.2852" y="370" clip-path="url(#clipPath2)" fill="none" width="70.1724" rx="4" ry="4" height="50"/>
      <text x="397.2852" xml:space="preserve" y="399.656" clip-path="url(#clipPath2)" font-family="sans-serif" stroke="none">Data View</text>
    </g>
    <g fill="white" text-rendering="geometricPrecision" shape-rendering="geometricPrecision" transform="matrix(1,0,0,1,-230,-270)" stroke="white">
      <rect x="495.7965" y="370" clip-path="url(#clipPath2)" width="86.8165" rx="4" ry="4" height="50" stroke="none"/>
    </g>
    <g text-rendering="geometricPrecision" stroke-miterlimit="1.45" shape-rendering="geometricPrecision" transform="matrix(1,0,0,1,-230,-270)" stroke-linecap="butt">
      <rect x="495.7965" y="370" clip-path="url(#clipPath2)" fill="none" width="86.8165" rx="4" ry="4" height="50"/>
      <text x="502.7965" xml:space="preserve" y="399.656" clip-path="url(#clipPath2)" font-family="sans-serif" stroke="none">Feature View</text>
    </g>
    <g fill="white" text-rendering="geometricPrecision" shape-rendering="geometricPrecision" transform="matrix(1,0,0,1,-230,-270)" stroke="white">
      <rect x="723.4634" y="370" clip-path="url(#clipPath2)" width="94.0286" rx="4" ry="4" height="50" stroke="none"/>
    </g>
    <g text-rendering="geometricPrecision" stroke-miterlimit="1.45" shape-rendering="geometricPrecision" transform="matrix(1,0,0,1,-230,-270)" stroke-linecap="butt">
      <rect x="723.4634" y="370" clip-path="url(#clipPath2)" fill="none" width="94.0286" rx="4" ry="4" height="50"/>
      <text x="730.4634" xml:space="preserve" y="399.656" clip-path="url(#clipPath2)" font-family="sans-serif" stroke="none">Dependencies</text>
    </g>
    <g fill="white" text-rendering="geometricPrecision" shape-rendering="geometricPrecision" transform="matrix(1,0,0,1,-230,-270)" stroke="white">
      <rect x="852.8309" y="370" clip-path="url(#clipPath2)" width="68.4924" rx="4" ry="4" height="50" stroke="none"/>
    </g>
    <g text-rendering="geometricPrecision" stroke-miterlimit="1.45" shape-rendering="geometricPrecision" transform="matrix(1,0,0,1,-230,-270)" stroke-linecap="butt">
      <rect x="852.8309" y="370" clip-path="url(#clipPath2)" fill="none" width="68.4924" rx="4" ry="4" height="50"/>
      <text x="859.8309" xml:space="preserve" y="399.656" clip-path="url(#clipPath2)" font-family="sans-serif" stroke="none">Detection</text>
    </g>
    <g fill="white" text-rendering="geometricPrecision" shape-rendering="geometricPrecision" transform="matrix(1,0,0,1,-230,-270)" stroke="white">
      <rect x="956.6623" y="370" clip-path="url(#clipPath2)" width="71.6244" rx="4" ry="4" height="50" stroke="none"/>
    </g>
    <g text-rendering="geometricPrecision" stroke-miterlimit="1.45" shape-rendering="geometricPrecision" transform="matrix(1,0,0,1,-230,-270)" stroke-linecap="butt">
      <rect x="956.6623" y="370" clip-path="url(#clipPath2)" fill="none" width="71.6244" rx="4" ry="4" height="50"/>
      <text x="979.1964" xml:space="preserve" y="391.484" clip-path="url(#clipPath2)" font-family="sans-serif" stroke="none">Data</text>
      <text x="963.6622" xml:space="preserve" y="407.8281" clip-path="url(#clipPath2)" font-family="sans-serif" stroke="none">Mitigation</text>
    </g>
    <g fill="white" text-rendering="geometricPrecision" shape-rendering="geometricPrecision" transform="matrix(1,0,0,1,-230,-270)" stroke="white">
      <rect x="1063.6256" y="370" clip-path="url(#clipPath2)" width="98.3606" rx="4" ry="4" height="50" stroke="none"/>
    </g>
    <g text-rendering="geometricPrecision" stroke-miterlimit="1.45" stroke-width="2" shape-rendering="geometricPrecision" transform="matrix(1,0,0,1,-230,-270)" stroke-linecap="butt">
      <rect x="1063.6256" y="370" clip-path="url(#clipPath2)" fill="none" width="98.3606" rx="4" ry="4" height="50"/>
      <text x="1070.6256" y="399.656" clip-path="url(#clipPath2)" font-family="sans-serif" stroke="none" stroke-width="1" xml:space="preserve">Pre-processing</text>
    </g>
    <g fill="white" text-rendering="geometricPrecision" shape-rendering="geometricPrecision" transform="matrix(1,0,0,1,-230,-270)" stroke="white">
      <rect x="1063.6256" y="298" clip-path="url(#clipPath2)" width="98.3606" rx="4" ry="4" height="50" stroke="none"/>
    </g>
    <g text-rendering="geometricPrecision" stroke-miterlimit="1.45" stroke-dasharray="6,2" shape-rendering="geometricPrecision" transform="matrix(1,0,0,1,-230,-270)" stroke-linecap="butt">
      <rect x="1063.6256" y="298" clip-path="url(#clipPath2)" fill="none" width="98.3606" rx="4" ry="4" height="50"/>
      <text x="1082.1758" y="319.484" clip-path="url(#clipPath2)" font-family="sans-serif" stroke-dasharray="none" stroke="none" xml:space="preserve">Alternative</text>
      <text x="1070.6256" y="335.8281" clip-path="url(#clipPath2)" font-family="sans-serif" stroke-dasharray="none" stroke="none" xml:space="preserve">Pre-processing</text>
    </g>
    <g fill="white" text-rendering="geometricPrecision" shape-rendering="geometricPrecision" transform="matrix(1,0,0,1,-230,-270)" stroke="white">
      <rect x="1063.6256" y="442" clip-path="url(#clipPath2)" width="98.3606" rx="4" ry="4" height="50" stroke="none"/>
    </g>
    <g text-rendering="geometricPrecision" stroke-miterlimit="1.45" stroke-dasharray="6,2" shape-rendering="geometricPrecision" transform="matrix(1,0,0,1,-230,-270)" stroke-linecap="butt">
      <rect x="1063.6256" y="442" clip-path="url(#clipPath2)" fill="none" width="98.3606" rx="4" ry="4" height="50"/>
      <text x="1096.3838" y="463.484" clip-path="url(#clipPath2)" font-family="sans-serif" stroke-dasharray="none" stroke="none" xml:space="preserve">Other</text>
      <text x="1070.6256" y="479.8281" clip-path="url(#clipPath2)" font-family="sans-serif" stroke-dasharray="none" stroke="none" xml:space="preserve">Pre-processing</text>
    </g>
    <g fill="white" text-rendering="geometricPrecision" shape-rendering="geometricPrecision" transform="matrix(1,0,0,1,-230,-270)" stroke="white">
      <path d="M1197.3252 395 L1207.1613 370 L1285.8497 370 L1295.6858 395 L1285.8497 420 L1207.1613 420 Z" fill-rule="evenodd" clip-path="url(#clipPath2)" stroke="none"/>
    </g>
    <g text-rendering="geometricPrecision" stroke-miterlimit="1.45" shape-rendering="geometricPrecision" transform="matrix(1,0,0,1,-230,-270)" stroke-linecap="butt">
      <path fill="none" d="M1197.3252 395 L1207.1613 370 L1285.8497 370 L1295.6858 395 L1285.8497 420 L1207.1613 420 Z" fill-rule="evenodd" clip-path="url(#clipPath2)"/>
      <text x="1204.3252" xml:space="preserve" y="391.484" clip-path="url(#clipPath2)" font-family="sans-serif" stroke="none">Pre-processing</text>
      <text x="1226.2194" xml:space="preserve" y="407.8281" clip-path="url(#clipPath2)" font-family="sans-serif" stroke="none">Results</text>
    </g>
    <g fill="white" text-rendering="geometricPrecision" shape-rendering="geometricPrecision" transform="matrix(1,0,0,1,-230,-270)" stroke="white">
      <rect x="1331.0248" y="370" clip-path="url(#clipPath2)" width="68.2524" rx="4" ry="4" height="50" stroke="none"/>
    </g>
    <g text-rendering="geometricPrecision" stroke-miterlimit="1.45" shape-rendering="geometricPrecision" transform="matrix(1,0,0,1,-230,-270)" stroke-linecap="butt">
      <rect x="1331.0248" y="370" clip-path="url(#clipPath2)" fill="none" width="68.2524" rx="4" ry="4" height="50"/>
      <text x="1338.0248" xml:space="preserve" y="391.484" clip-path="url(#clipPath2)" font-family="sans-serif" stroke="none">Summary</text>
      <text x="1349.0948" xml:space="preserve" y="407.8281" clip-path="url(#clipPath2)" font-family="sans-serif" stroke="none">(pt. 1)</text>
    </g>
    <g fill="white" text-rendering="geometricPrecision" shape-rendering="geometricPrecision" transform="matrix(1,0,0,1,-230,-270)" stroke="white">
      <rect x="1329.3388" y="594" clip-path="url(#clipPath2)" width="71.6244" rx="4" ry="4" height="50" stroke="none"/>
    </g>
    <g text-rendering="geometricPrecision" stroke-miterlimit="1.45" shape-rendering="geometricPrecision" transform="matrix(1,0,0,1,-230,-270)" stroke-linecap="butt">
      <rect x="1329.3388" y="594" clip-path="url(#clipPath2)" fill="none" width="71.6244" rx="4" ry="4" height="50"/>
      <text x="1347.4569" xml:space="preserve" y="615.4839" clip-path="url(#clipPath2)" font-family="sans-serif" stroke="none">Model</text>
      <text x="1336.3387" xml:space="preserve" y="631.8281" clip-path="url(#clipPath2)" font-family="sans-serif" stroke="none">Mitigation</text>
    </g>
    <g fill="white" text-rendering="geometricPrecision" shape-rendering="geometricPrecision" transform="matrix(1,0,0,1,-230,-270)" stroke="white">
      <rect x="1204.8253" y="594" clip-path="url(#clipPath2)" width="90.8605" rx="4" ry="4" height="50" stroke="none"/>
    </g>
    <g text-rendering="geometricPrecision" stroke-miterlimit="1.45" stroke-width="2" shape-rendering="geometricPrecision" transform="matrix(1,0,0,1,-230,-270)" stroke-linecap="butt">
      <rect x="1204.8253" y="594" clip-path="url(#clipPath2)" fill="none" width="90.8605" rx="4" ry="4" height="50"/>
      <text x="1211.8253" y="623.656" clip-path="url(#clipPath2)" font-family="sans-serif" stroke="none" stroke-width="1" xml:space="preserve">In-processing</text>
    </g>
    <g fill="white" text-rendering="geometricPrecision" shape-rendering="geometricPrecision" transform="matrix(1,0,0,1,-230,-270)" stroke="white">
      <rect x="1204.8253" y="661" clip-path="url(#clipPath2)" width="90.8605" rx="4" ry="4" height="50" stroke="none"/>
    </g>
    <g text-rendering="geometricPrecision" stroke-miterlimit="1.45" stroke-dasharray="6,2" shape-rendering="geometricPrecision" transform="matrix(1,0,0,1,-230,-270)" stroke-linecap="butt">
      <rect x="1204.8253" y="661" clip-path="url(#clipPath2)" fill="none" width="90.8605" rx="4" ry="4" height="50"/>
      <text x="1233.8335" y="682.4839" clip-path="url(#clipPath2)" font-family="sans-serif" stroke-dasharray="none" stroke="none" xml:space="preserve">Other</text>
      <text x="1211.8253" y="698.8281" clip-path="url(#clipPath2)" font-family="sans-serif" stroke-dasharray="none" stroke="none" xml:space="preserve">In-processing</text>
    </g>
    <g fill="white" text-rendering="geometricPrecision" shape-rendering="geometricPrecision" transform="matrix(1,0,0,1,-230,-270)" stroke="white">
      <path d="M1080.3118 619 L1089.3978 594 L1162.0863 594 L1171.1724 619 L1162.0863 644 L1089.3978 644 Z" fill-rule="evenodd" clip-path="url(#clipPath2)" stroke="none"/>
    </g>
    <g text-rendering="geometricPrecision" stroke-miterlimit="1.45" shape-rendering="geometricPrecision" transform="matrix(1,0,0,1,-230,-270)" stroke-linecap="butt">
      <path fill="none" d="M1080.3118 619 L1089.3978 594 L1162.0863 594 L1171.1724 619 L1162.0863 644 L1089.3978 644 Z" fill-rule="evenodd" clip-path="url(#clipPath2)"/>
      <text x="1087.3118" xml:space="preserve" y="615.4839" clip-path="url(#clipPath2)" font-family="sans-serif" stroke="none">In-processing</text>
      <text x="1105.4559" xml:space="preserve" y="631.8281" clip-path="url(#clipPath2)" font-family="sans-serif" stroke="none">Results</text>
    </g>
    <g fill="white" text-rendering="geometricPrecision" shape-rendering="geometricPrecision" transform="matrix(1,0,0,1,-230,-270)" stroke="white">
      <rect x="958.3483" y="594" clip-path="url(#clipPath2)" width="68.2524" rx="4" ry="4" height="50" stroke="none"/>
    </g>
    <g text-rendering="geometricPrecision" stroke-miterlimit="1.45" shape-rendering="geometricPrecision" transform="matrix(1,0,0,1,-230,-270)" stroke-linecap="butt">
      <rect x="958.3483" y="594" clip-path="url(#clipPath2)" fill="none" width="68.2524" rx="4" ry="4" height="50"/>
      <text x="965.3483" xml:space="preserve" y="615.4839" clip-path="url(#clipPath2)" font-family="sans-serif" stroke="none">Summary</text>
      <text x="976.4183" xml:space="preserve" y="631.8281" clip-path="url(#clipPath2)" font-family="sans-serif" stroke="none">(pt. 2)</text>
    </g>
    <g fill="rgb(255,204,0)" text-rendering="geometricPrecision" shape-rendering="geometricPrecision" transform="matrix(1,0,0,1,-230,-270)" stroke="rgb(255,204,0)">
      <rect x="849.6989" y="594" clip-path="url(#clipPath2)" width="71.6244" rx="4" ry="4" height="50" stroke="none"/>
    </g>
    <g text-rendering="geometricPrecision" stroke-miterlimit="1.45" shape-rendering="geometricPrecision" transform="matrix(1,0,0,1,-230,-270)" stroke-linecap="butt">
      <rect x="849.6989" y="594" clip-path="url(#clipPath2)" fill="none" width="71.6244" rx="4" ry="4" height="50"/>
      <text x="859.4469" xml:space="preserve" y="615.4839" clip-path="url(#clipPath2)" font-family="sans-serif" stroke="none">Outcome</text>
      <text x="856.6989" xml:space="preserve" y="631.8281" clip-path="url(#clipPath2)" font-family="sans-serif" stroke="none">Mitigation</text>
    </g>
    <g fill="white" text-rendering="geometricPrecision" shape-rendering="geometricPrecision" transform="matrix(1,0,0,1,-230,-270)" stroke="white">
      <rect x="1204.8253" y="527" clip-path="url(#clipPath2)" width="90.8605" rx="4" ry="4" height="50" stroke="none"/>
    </g>
    <g text-rendering="geometricPrecision" stroke-miterlimit="1.45" stroke-dasharray="6,2" shape-rendering="geometricPrecision" transform="matrix(1,0,0,1,-230,-270)" stroke-linecap="butt">
      <rect x="1204.8253" y="527" clip-path="url(#clipPath2)" fill="none" width="90.8605" rx="4" ry="4" height="50"/>
      <text x="1219.6254" y="548.4839" clip-path="url(#clipPath2)" font-family="sans-serif" stroke-dasharray="none" stroke="none" xml:space="preserve">Alternative</text>
      <text x="1211.8253" y="564.8281" clip-path="url(#clipPath2)" font-family="sans-serif" stroke-dasharray="none" stroke="none" xml:space="preserve">In-processing</text>
      <text x="239.4918" y="345.656" clip-path="url(#clipPath2)" font-family="sans-serif" stroke-dasharray="none" stroke="none" xml:space="preserve">start</text>
    </g>
    <g fill="white" text-rendering="geometricPrecision" shape-rendering="geometricPrecision" transform="matrix(1,0,0,1,-230,-270)" stroke="white">
      <rect x="965.0443" y="796" clip-path="url(#clipPath2)" width="58.2323" rx="4" ry="4" height="50" stroke="none"/>
    </g>
    <g text-rendering="geometricPrecision" stroke-miterlimit="1.45" shape-rendering="geometricPrecision" transform="matrix(1,0,0,1,-230,-270)" stroke-linecap="butt">
      <rect x="965.0443" y="796" clip-path="url(#clipPath2)" fill="none" width="58.2323" rx="4" ry="4" height="50"/>
      <text x="972.0443" xml:space="preserve" y="817.4839" clip-path="url(#clipPath2)" font-family="sans-serif" stroke="none">Test-set</text>
      <text x="975.2183" xml:space="preserve" y="833.8281" clip-path="url(#clipPath2)" font-family="sans-serif" stroke="none">Choice</text>
    </g>
    <g fill="white" text-rendering="geometricPrecision" shape-rendering="geometricPrecision" transform="matrix(1,0,0,1,-230,-270)" stroke="white">
      <rect x="1068.9897" y="796" clip-path="url(#clipPath2)" width="80.8765" rx="4" ry="4" height="50" stroke="none"/>
    </g>
    <g text-rendering="geometricPrecision" stroke-miterlimit="1.45" shape-rendering="geometricPrecision" transform="matrix(1,0,0,1,-230,-270)" stroke-linecap="butt">
      <rect x="1068.9897" y="796" clip-path="url(#clipPath2)" fill="none" width="80.8765" rx="4" ry="4" height="50"/>
      <text x="1075.9897" xml:space="preserve" y="825.656" clip-path="url(#clipPath2)" font-family="sans-serif" stroke="none">Polarization</text>
    </g>
    <g fill="white" text-rendering="geometricPrecision" shape-rendering="geometricPrecision" transform="matrix(1,0,0,1,-230,-270)" stroke="white">
      <path d="M1204.8253 821 L1212.913 796 L1277.6141 796 L1285.7018 821 L1277.6141 846 L1212.913 846 Z" fill-rule="evenodd" clip-path="url(#clipPath2)" stroke="none"/>
    </g>
    <g text-rendering="geometricPrecision" stroke-miterlimit="1.45" shape-rendering="geometricPrecision" transform="matrix(1,0,0,1,-230,-270)" stroke-linecap="butt">
      <path fill="none" d="M1204.8253 821 L1212.913 796 L1277.6141 796 L1285.7018 821 L1277.6141 846 L1212.913 846 Z" fill-rule="evenodd" clip-path="url(#clipPath2)"/>
      <text x="1211.8253" xml:space="preserve" y="817.4839" clip-path="url(#clipPath2)" font-family="sans-serif" stroke="none">Polarization</text>
      <text x="1224.9774" xml:space="preserve" y="833.8281" clip-path="url(#clipPath2)" font-family="sans-serif" stroke="none">Results</text>
    </g>
    <g fill="white" text-rendering="geometricPrecision" shape-rendering="geometricPrecision" transform="matrix(1,0,0,1,-230,-270)" stroke="white">
      <rect x="1346.9729" y="796" clip-path="url(#clipPath2)" width="68.2524" rx="4" ry="4" height="50" stroke="none"/>
    </g>
    <g text-rendering="geometricPrecision" stroke-miterlimit="1.45" shape-rendering="geometricPrecision" transform="matrix(1,0,0,1,-230,-270)" stroke-linecap="butt">
      <rect x="1346.9729" y="796" clip-path="url(#clipPath2)" fill="none" width="68.2524" rx="4" ry="4" height="50"/>
      <text x="1353.9729" xml:space="preserve" y="817.4839" clip-path="url(#clipPath2)" font-family="sans-serif" stroke="none">Summary</text>
      <text x="1365.043" xml:space="preserve" y="833.8281" clip-path="url(#clipPath2)" font-family="sans-serif" stroke="none">(pt. 3)</text>
    </g>
    <g fill="white" text-rendering="geometricPrecision" shape-rendering="geometricPrecision" transform="matrix(1,0,0,1,-230,-270)" stroke="white">
      <rect x="713.5153" y="594" clip-path="url(#clipPath2)" width="103.9767" rx="4" ry="4" height="50" stroke="none"/>
    </g>
    <g text-rendering="geometricPrecision" stroke-miterlimit="1.45" stroke-width="2" shape-rendering="geometricPrecision" transform="matrix(1,0,0,1,-230,-270)" stroke-linecap="butt">
      <rect x="713.5153" y="594" clip-path="url(#clipPath2)" fill="none" width="103.9767" rx="4" ry="4" height="50"/>
      <text x="720.5153" y="623.656" clip-path="url(#clipPath2)" font-family="sans-serif" stroke="none" stroke-width="1" xml:space="preserve">Post-processing</text>
    </g>
    <g fill="white" text-rendering="geometricPrecision" shape-rendering="geometricPrecision" transform="matrix(1,0,0,1,-230,-270)" stroke="white">
      <rect x="713.5153" y="527" clip-path="url(#clipPath2)" width="103.9767" rx="4" ry="4" height="50" stroke="none"/>
    </g>
    <g text-rendering="geometricPrecision" stroke-miterlimit="1.45" stroke-dasharray="6,2" shape-rendering="geometricPrecision" transform="matrix(1,0,0,1,-230,-270)" stroke-linecap="butt">
      <rect x="713.5153" y="527" clip-path="url(#clipPath2)" fill="none" width="103.9767" rx="4" ry="4" height="50"/>
      <text x="734.8734" y="548.4839" clip-path="url(#clipPath2)" font-family="sans-serif" stroke-dasharray="none" stroke="none" xml:space="preserve">Alternative</text>
      <text x="720.5153" y="564.8281" clip-path="url(#clipPath2)" font-family="sans-serif" stroke-dasharray="none" stroke="none" xml:space="preserve">Post-processing</text>
    </g>
    <g fill="white" text-rendering="geometricPrecision" shape-rendering="geometricPrecision" transform="matrix(1,0,0,1,-230,-270)" stroke="white">
      <rect x="713.5153" y="661" clip-path="url(#clipPath2)" width="103.9767" rx="4" ry="4" height="50" stroke="none"/>
    </g>
    <g text-rendering="geometricPrecision" stroke-miterlimit="1.45" stroke-dasharray="6,2" shape-rendering="geometricPrecision" transform="matrix(1,0,0,1,-230,-270)" stroke-linecap="butt">
      <rect x="713.5153" y="661" clip-path="url(#clipPath2)" fill="none" width="103.9767" rx="4" ry="4" height="50"/>
      <text x="749.0815" y="682.4839" clip-path="url(#clipPath2)" font-family="sans-serif" stroke-dasharray="none" stroke="none" xml:space="preserve">Other</text>
      <text x="720.5153" y="698.8281" clip-path="url(#clipPath2)" font-family="sans-serif" stroke-dasharray="none" stroke="none" xml:space="preserve">Post-processing</text>
    </g>
    <g fill="white" text-rendering="geometricPrecision" shape-rendering="geometricPrecision" transform="matrix(1,0,0,1,-230,-270)" stroke="white">
      <path d="M577.3317 619 L587.7293 594 L670.9106 594 L681.3083 619 L670.9106 644 L587.7293 644 Z" fill-rule="evenodd" clip-path="url(#clipPath2)" stroke="none"/>
    </g>
    <g text-rendering="geometricPrecision" stroke-miterlimit="1.45" shape-rendering="geometricPrecision" transform="matrix(1,0,0,1,-230,-270)" stroke-linecap="butt">
      <path fill="none" d="M577.3317 619 L587.7293 594 L670.9106 594 L681.3083 619 L670.9106 644 L587.7293 644 Z" fill-rule="evenodd" clip-path="url(#clipPath2)"/>
      <text x="584.3317" xml:space="preserve" y="615.4839" clip-path="url(#clipPath2)" font-family="sans-serif" stroke="none">Post-processing</text>
      <text x="609.0338" xml:space="preserve" y="631.8281" clip-path="url(#clipPath2)" font-family="sans-serif" stroke="none">Results</text>
    </g>
    <g fill="white" text-rendering="geometricPrecision" shape-rendering="geometricPrecision" transform="matrix(1,0,0,1,-230,-270)" stroke="white">
      <rect x="479.0793" y="594" clip-path="url(#clipPath2)" width="68.2524" rx="4" ry="4" height="50" stroke="none"/>
    </g>
    <g text-rendering="geometricPrecision" stroke-miterlimit="1.45" shape-rendering="geometricPrecision" transform="matrix(1,0,0,1,-230,-270)" stroke-linecap="butt">
      <rect x="479.0793" y="594" clip-path="url(#clipPath2)" fill="none" width="68.2524" rx="4" ry="4" height="50"/>
      <text x="486.0793" xml:space="preserve" y="615.4839" clip-path="url(#clipPath2)" font-family="sans-serif" stroke="none">Summary</text>
      <text x="497.1494" xml:space="preserve" y="631.8281" clip-path="url(#clipPath2)" font-family="sans-serif" stroke="none">(pt. 4)</text>
      <text x="396.0284" xml:space="preserve" y="623.656" clip-path="url(#clipPath2)" font-family="sans-serif" stroke="none">end</text>
      <text x="1448.811" xml:space="preserve" y="399.656" clip-path="url(#clipPath2)" font-family="sans-serif" stroke="none">end</text>
      <text x="1467.9761" xml:space="preserve" y="825.656" clip-path="url(#clipPath2)" font-family="sans-serif" stroke="none">end</text>
    </g>
    <g fill="white" text-rendering="geometricPrecision" shape-rendering="geometricPrecision" transform="matrix(1,0,0,1,-230,-270)" stroke="white">
      <path d="M613.68 395 L621.5516 370 L684.5248 370 L692.3964 395 L684.5248 420 L621.5516 420 Z" fill-rule="evenodd" clip-path="url(#clipPath2)" stroke="none"/>
    </g>
    <g text-rendering="geometricPrecision" stroke-miterlimit="1.45" shape-rendering="geometricPrecision" transform="matrix(1,0,0,1,-230,-270)" stroke-linecap="butt">
      <path fill="none" d="M613.68 395 L621.5516 370 L684.5248 370 L692.3964 395 L684.5248 420 L621.5516 420 Z" fill-rule="evenodd" clip-path="url(#clipPath2)"/>
      <text x="620.68" xml:space="preserve" y="391.484" clip-path="url(#clipPath2)" font-family="sans-serif" stroke="none">Preliminary</text>
      <text x="630.2261" xml:space="preserve" y="407.8281" clip-path="url(#clipPath2)" font-family="sans-serif" stroke="none">Analysis</text>
      <path fill="none" d="M354.9464 395 L382.2621 395" clip-path="url(#clipPath2)"/>
      <path d="M390.2621 395 L378.2621 390 L381.2621 395 L378.2621 400 Z" clip-path="url(#clipPath2)" stroke="none"/>
      <path fill="none" d="M460.4719 395 L487.8017 395" clip-path="url(#clipPath2)"/>
      <path d="M495.8017 395 L483.8017 390 L486.8017 395 L483.8017 400 Z" clip-path="url(#clipPath2)" stroke="none"/>
      <path fill="none" d="M817.4761 395 L844.8544 395" clip-path="url(#clipPath2)"/>
      <path d="M852.8544 395 L840.8544 390 L843.8544 395 L840.8544 400 Z" clip-path="url(#clipPath2)" stroke="none"/>
      <path fill="none" d="M921.3261 395 L948.6571 395" clip-path="url(#clipPath2)"/>
      <path d="M956.6571 395 L944.6571 390 L947.6571 395 L944.6571 400 Z" clip-path="url(#clipPath2)" stroke="none"/>
      <path fill="none" d="M1028.286 395 L1055.6539 395" clip-path="url(#clipPath2)"/>
      <path d="M1063.6539 395 L1051.6539 390 L1054.6539 395 L1051.6539 400 Z" clip-path="url(#clipPath2)" stroke="none"/>
      <path fill="none" stroke-dasharray="6,2" d="M1028.286 373.5723 L1064.135 352.1221" clip-path="url(#clipPath2)"/>
      <path stroke-dasharray="6,2" d="M1071 348.0145 L1058.1354 349.8853 L1063.277 352.6356 L1063.2698 358.4665 Z" clip-path="url(#clipPath2)" stroke="none"/>
      <path fill="none" stroke-dasharray="6,2" d="M1028.286 416.4277 L1064.135 437.8779" clip-path="url(#clipPath2)"/>
      <path stroke-dasharray="6,2" d="M1071 441.9855 L1063.2698 431.5335 L1063.277 437.3644 L1058.1354 440.1147 Z" clip-path="url(#clipPath2)" stroke="none"/>
      <path fill="none" d="M1161.9967 395 L1189.36 395" clip-path="url(#clipPath2)"/>
      <path d="M1197.36 395 L1185.36 390 L1188.36 395 L1185.36 400 Z" clip-path="url(#clipPath2)" stroke="none"/>
      <path fill="none" stroke-dasharray="6,2" d="M1158.9937 442.127 L1198.9108 420.6308" clip-path="url(#clipPath2)"/>
      <path stroke-dasharray="6,2" d="M1205.9543 416.8376 L1193.0183 418.1251 L1198.0303 421.1049 L1197.7596 426.9296 Z" clip-path="url(#clipPath2)" stroke="none"/>
      <path fill="none" stroke-dasharray="6,2" d="M1158.9937 347.873 L1198.9108 369.3692" clip-path="url(#clipPath2)"/>
      <path stroke-dasharray="6,2" d="M1205.9543 373.1624 L1197.7596 363.0704 L1198.0303 368.8951 L1193.0183 371.8749 Z" clip-path="url(#clipPath2)" stroke="none"/>
      <path fill="none" d="M1295.6611 395 L1323.0508 395" clip-path="url(#clipPath2)"/>
      <path d="M1331.0508 395 L1319.0508 390 L1322.0508 395 L1319.0508 400 Z" clip-path="url(#clipPath2)" stroke="none"/>
      <path fill="none" d="M1363.7028 370.0198 L1363.7028 272 L992.4745 272 L992.4745 361.9856" clip-path="url(#clipPath2)"/>
      <path d="M992.4745 369.9856 L997.4745 357.9856 L992.4745 360.9856 L987.4745 357.9856 Z" clip-path="url(#clipPath2)" stroke="none"/>
      <path fill="none" d="M1365.151 420.0195 L1365.151 585.9817" clip-path="url(#clipPath2)"/>
      <path d="M1365.151 593.9817 L1370.151 581.9817 L1365.151 584.9817 L1360.151 581.9817 Z" clip-path="url(#clipPath2)" stroke="none"/>
      <path fill="none" d="M1329.3303 619 L1303.7004 619" clip-path="url(#clipPath2)"/>
      <path d="M1295.7004 619 L1307.7004 624 L1304.7004 619 L1307.7004 614 Z" clip-path="url(#clipPath2)" stroke="none"/>
      <path fill="none" stroke-dasharray="6,2" d="M1329.3303 639.8884 L1299.754 657.1356" clip-path="url(#clipPath2)"/>
      <path stroke-dasharray="6,2" d="M1292.8431 661.1655 L1305.7281 659.4399 L1300.6178 656.6318 L1300.6907 650.8013 Z" clip-path="url(#clipPath2)" stroke="none"/>
      <path fill="none" d="M1204.8093 619 L1179.1826 619" clip-path="url(#clipPath2)"/>
      <path d="M1171.1826 619 L1183.1826 624 L1180.1826 619 L1183.1826 614 Z" clip-path="url(#clipPath2)" stroke="none"/>
      <path fill="none" stroke-dasharray="6,2" d="M1205.9645 662.1672 L1170.822 643.2573" clip-path="url(#clipPath2)"/>
      <path stroke-dasharray="6,2" d="M1163.7772 639.4665 L1171.9752 649.5557 L1171.7026 643.7311 L1176.7137 640.7496 Z" clip-path="url(#clipPath2)" stroke="none"/>
      <path fill="none" d="M1080.2892 619 L1034.5627 619" clip-path="url(#clipPath2)"/>
      <path d="M1026.5627 619 L1038.5627 624 L1035.5627 619 L1038.5627 614 Z" clip-path="url(#clipPath2)" stroke="none"/>
      <path fill="none" d="M992.4745 593.9805 L992.4745 428.0183" clip-path="url(#clipPath2)"/>
      <path d="M992.4745 420.0183 L987.4745 432.0183 L992.4745 429.0183 L997.4745 432.0183 Z" clip-path="url(#clipPath2)" stroke="none"/>
      <path fill="none" d="M995.3798 643.9939 L1006.0745 736 L1365.151 736 L1365.151 651.9939" clip-path="url(#clipPath2)"/>
      <path d="M1365.151 643.9939 L1360.151 655.9939 L1365.151 652.9939 L1370.151 655.9939 Z" clip-path="url(#clipPath2)" stroke="none"/>
      <path fill="none" d="M958.3433 619 L929.3226 619" clip-path="url(#clipPath2)"/>
      <path d="M921.3226 619 L933.3226 624 L930.3226 619 L933.3226 614 Z" clip-path="url(#clipPath2)" stroke="none"/>
      <path fill="none" stroke-dasharray="6,2" d="M1329.3303 598.1116 L1299.754 580.8644" clip-path="url(#clipPath2)"/>
      <path stroke-dasharray="6,2" d="M1292.8431 576.8345 L1300.6907 587.1987 L1300.6178 581.3682 L1305.7281 578.5601 Z" clip-path="url(#clipPath2)" stroke="none"/>
      <path fill="none" stroke-dasharray="6,2" d="M1205.9645 575.8328 L1170.822 594.7427" clip-path="url(#clipPath2)"/>
      <path stroke-dasharray="6,2" d="M1163.7772 598.5335 L1176.7137 597.2504 L1171.7026 594.2689 L1171.9752 588.4443 Z" clip-path="url(#clipPath2)" stroke="none"/>
      <path fill="none" d="M266.8666 351.4954 L291.1168 369.263" clip-path="url(#clipPath2)"/>
      <path d="M297.5701 373.9912 L290.8453 362.8657 L290.3102 368.672 L284.9351 370.9322 Z" clip-path="url(#clipPath2)" stroke="none"/>
      <path fill="none" d="M992.6832 644.0034 L993.8849 787.9805" clip-path="url(#clipPath2)"/>
      <path d="M993.9517 795.9802 L998.8513 783.9388 L993.8765 786.9805 L988.8517 784.0223 Z" clip-path="url(#clipPath2)" stroke="none"/>
      <path fill="none" d="M1007.1202 795.9827 L1104.5344 650.6416" clip-path="url(#clipPath2)"/>
      <path d="M1108.9885 643.9962 L1098.1541 651.1805 L1103.9777 651.4723 L1106.4607 656.7481 Z" clip-path="url(#clipPath2)" stroke="none"/>
      <path fill="none" d="M1023.2869 821 L1061.0073 821" clip-path="url(#clipPath2)"/>
      <path d="M1069.0073 821 L1057.0073 816 L1060.0073 821 L1057.0073 826 Z" clip-path="url(#clipPath2)" stroke="none"/>
      <path fill="none" d="M1149.8536 821 L1196.7795 821" clip-path="url(#clipPath2)"/>
      <path d="M1204.7795 821 L1192.7795 816 L1195.7795 821 L1192.7795 826 Z" clip-path="url(#clipPath2)" stroke="none"/>
      <path fill="none" d="M1285.6892 821 L1338.9509 821" clip-path="url(#clipPath2)"/>
      <path d="M1346.9509 821 L1334.9509 816 L1337.9509 821 L1334.9509 826 Z" clip-path="url(#clipPath2)" stroke="none"/>
      <path fill="none" d="M1023.2918 800.9458 L1081.8328 760.6458 L1381.0991 760.6458 L1381.0991 787.9801" clip-path="url(#clipPath2)"/>
      <path d="M1381.0991 795.9801 L1386.0991 783.9801 L1381.0991 786.9801 L1376.0991 783.9801 Z" clip-path="url(#clipPath2)" stroke="none"/>
      <path fill="none" d="M1381.0991 845.9756 L1381.0991 887 L893.8328 887 L893.8328 651.9788" clip-path="url(#clipPath2)"/>
      <path d="M893.8328 643.9788 L888.8328 655.9788 L893.8328 652.9788 L898.8328 655.9788 Z" clip-path="url(#clipPath2)" stroke="none"/>
      <path fill="none" d="M1397.3978 796.015 L1443.4327 725.4458 L1443.4327 507 L1016.4745 507 L997.4536 427.7827" clip-path="url(#clipPath2)"/>
      <path d="M995.5858 420.0038 L993.5257 432.8395 L997.6871 428.755 L1003.2493 430.5047 Z" clip-path="url(#clipPath2)" stroke="none"/>
      <path fill="none" d="M849.6788 619 L825.4966 619" clip-path="url(#clipPath2)"/>
      <path d="M817.4966 619 L829.4966 624 L826.4966 619 L829.4966 614 Z" clip-path="url(#clipPath2)" stroke="none"/>
      <path fill="none" d="M849.6788 598.9949 L817.2479 580.8887" clip-path="url(#clipPath2)"/>
      <path d="M810.2628 576.989 L818.303 587.2043 L818.121 581.3762 L823.1778 578.4729 Z" clip-path="url(#clipPath2)" stroke="none"/>
      <path fill="none" d="M849.6788 639.0051 L817.2479 657.1113" clip-path="url(#clipPath2)"/>
      <path d="M810.2628 661.011 L823.1778 659.5271 L818.121 656.6238 L818.303 650.7957 Z" clip-path="url(#clipPath2)" stroke="none"/>
      <path fill="none" d="M713.537 619 L689.3388 619" clip-path="url(#clipPath2)"/>
      <path d="M681.3388 619 L693.3388 624 L690.3388 619 L693.3388 614 Z" clip-path="url(#clipPath2)" stroke="none"/>
      <path fill="none" stroke-dasharray="6,2" d="M715.6649 661.4802 L679.6286 643.751" clip-path="url(#clipPath2)"/>
      <path stroke-dasharray="6,2" d="M672.4503 640.2194 L681.0105 650.0032 L680.5259 644.1924 L685.425 641.0303 Z" clip-path="url(#clipPath2)" stroke="none"/>
      <path fill="none" stroke-dasharray="6,2" d="M715.6649 576.5198 L679.6286 594.249" clip-path="url(#clipPath2)"/>
      <path stroke-dasharray="6,2" d="M672.4503 597.7806 L685.425 596.9697 L680.5259 593.8076 L681.0105 587.9968 Z" clip-path="url(#clipPath2)" stroke="none"/>
      <path fill="none" d="M577.3576 619 L555.3176 619" clip-path="url(#clipPath2)"/>
      <path d="M547.3176 619 L559.3176 624 L556.3176 619 L559.3176 614 Z" clip-path="url(#clipPath2)" stroke="none"/>
      <path fill="none" d="M516.9515 593.9948 L529.2054 512.2 L887.0771 512.2 L885.9951 585.9957" clip-path="url(#clipPath2)"/>
      <path d="M885.8777 593.9948 L891.0532 582.0694 L886.0097 584.9958 L881.0543 581.9228 Z" clip-path="url(#clipPath2)" stroke="none"/>
      <path fill="none" d="M516.5723 644.0034 L526.8055 720 L631.4328 720 L1349.151 720 L1360.4999 651.9068" clip-path="url(#clipPath2)"/>
      <path d="M1361.8151 644.0156 L1354.9103 655.0304 L1360.3354 652.8932 L1364.7743 656.6743 Z" clip-path="url(#clipPath2)" stroke="none"/>
      <path fill="none" d="M513.2054 643.9729 L513.2054 676.7904 L513.2054 736.9504 L968.4745 736.9504 L984.1843 788.356" clip-path="url(#clipPath2)"/>
      <path d="M986.5224 796.0067 L987.797 783.0693 L983.8921 787.3997 L978.2336 785.9919 Z" clip-path="url(#clipPath2)" stroke="none"/>
      <path fill="none" d="M513.2054 594.0294 L513.2054 546.8704 L513.2054 497 L963.6744 497 L989.6583 427.5162" clip-path="url(#clipPath2)"/>
      <path d="M992.4604 420.023 L983.574 429.5115 L989.308 428.4529 L992.9405 433.0141 Z" clip-path="url(#clipPath2)" stroke="none"/>
      <path fill="none" d="M479.0999 619 L432.5926 619" clip-path="url(#clipPath2)"/>
      <path d="M424.5926 619 L436.5926 624 L433.5926 619 L436.5926 614 Z" clip-path="url(#clipPath2)" stroke="none"/>
      <path fill="none" d="M1399.3217 395 L1433.811 395" clip-path="url(#clipPath2)"/>
      <path d="M1441.811 395 L1429.811 390 L1432.811 395 L1429.811 400 Z" clip-path="url(#clipPath2)" stroke="none"/>
      <path fill="none" d="M1415.194 821 L1452.9761 821" clip-path="url(#clipPath2)"/>
      <path d="M1460.9761 821 L1448.9761 816 L1451.9761 821 L1448.9761 826 Z" clip-path="url(#clipPath2)" stroke="none"/>
      <path fill="none" d="M582.5871 395 L605.6503 395" clip-path="url(#clipPath2)"/>
      <path d="M613.6503 395 L601.6503 390 L604.6503 395 L601.6503 400 Z" clip-path="url(#clipPath2)" stroke="none"/>
      <path fill="none" d="M692.4045 395 L715.4736 395" clip-path="url(#clipPath2)"/>
      <path d="M723.4736 395 L711.4736 390 L714.4736 395 L711.4736 400 Z" clip-path="url(#clipPath2)" stroke="none"/>
    </g>
  </g>
</svg>
